<svg width="35" height="30" viewBox="0 0 35 30" fill="none" xmlns="http://www.w3.org/2000/svg">
<path fill-rule="evenodd" clip-rule="evenodd" d="M24.6349 9.33176C24.7552 9.28757 24.8636 9.24772 24.9527 9.22087C27.017 8.61388 28.1891 11.7948 26.1172 12.4018C23.9016 13.0625 21.4138 13.3391 20.0678 10.9803C19.3872 9.78943 19.4251 8.52168 19.9468 7.46139C19.9619 7.43066 19.9544 7.39992 19.9317 7.37687C19.0923 6.61623 18.5933 5.50215 18.6462 4.1422C18.7521 1.1995 21.5499 0.269818 24.0301 0.546417C26.1701 0.7846 25.5652 4.12684 23.4328 3.88865C22.8808 3.82719 21.8977 3.7273 21.9809 4.4649C22.071 5.24608 22.5428 5.22255 23.0135 5.19907C23.1354 5.19299 23.2572 5.18691 23.3723 5.19482C25.0434 5.31006 25.1568 7.83787 23.6596 8.33729C23.6177 8.35122 23.5695 8.3655 23.5176 8.38086L23.5176 8.38087C23.0832 8.5095 22.3938 8.71368 23.0017 9.42063C23.335 9.80937 24.1013 9.52783 24.6349 9.33176ZM19.4964 12.0958C18.471 11.9349 16.6783 11.3143 16.3517 11.0155C16.2529 10.9312 16.2377 10.7933 16.3365 10.709C16.3896 10.6707 17.324 9.75884 17.5822 9.20716C18.6077 7.01573 17.962 4.14236 15.5085 3.38379C13.3436 2.70951 10.2824 4.11938 10.3204 6.60197C10.3351 7.48485 10.5008 8.36772 10.6677 9.25673C10.7601 9.74881 10.8528 10.2428 10.9205 10.7396C11.0071 11.3651 11.0242 11.9555 11.0416 12.5589C11.0625 13.2785 11.0838 14.0165 11.2243 14.8543C11.5737 16.9767 14.5514 16.2029 14.4678 14.1417C14.4602 14.0191 14.5894 13.9425 14.6957 14.0114C15.8883 14.8006 17.286 15.0688 18.6761 15.2757C20.7878 15.5975 21.5398 12.4177 19.4964 12.0958ZM13.8753 8.34131C13.4879 8.34131 13.2069 7.23028 13.4272 6.4334C13.5639 5.95833 14.3235 5.70548 14.5286 6.20353C14.7337 6.7169 14.559 8.34898 13.8753 8.34131ZM7.37998 16.6764C1.84105 19.7781 3.282 9.39745 7.12576 11.9784C9.76911 13.7595 11.2467 10.7753 9.34401 9.31492C7.63753 8.01494 4.72764 7.61299 2.89359 8.81534C1.12593 9.97636 0.172868 12.4766 0.0190175 14.5422C-0.158503 16.9392 0.914702 19.0122 2.90674 20.2612C5.06211 21.6106 7.21095 21.2163 9.15673 19.794C11.0289 18.4209 9.20647 15.6511 7.37998 16.6764ZM32.5758 21.6343C31.7287 22.3955 29.52 23.3411 29.0964 22.1879C28.7524 21.2451 29.4808 21.1186 30.1557 21.0015L30.1557 21.0015C30.3119 20.9743 30.4652 20.9477 30.6016 20.9116C32.3716 20.4349 32.1976 17.2981 30.2688 17.4288C30.0988 17.439 29.8423 17.5034 29.5445 17.578C28.5041 17.8389 26.9599 18.2261 26.8423 16.8752C26.7213 15.4375 29.1569 15.5451 30.1175 15.6835C32.243 15.9834 32.3111 12.2161 30.1553 12.2853C27.2886 12.3775 23.1056 13.2386 23.499 17.0367C23.6427 18.459 24.3462 19.9736 25.6472 20.6271C25.7001 20.6502 25.7304 20.7117 25.7152 20.7732C25.4732 21.7419 25.632 22.7876 26.1388 23.6794C27.8861 26.7548 31.7438 25.909 34.2324 24.4559C36.0931 23.3719 34.187 20.1812 32.5758 21.6343ZM17.0191 18.1855C17.0212 18.184 17.0231 18.1826 17.025 18.1812C20.6586 13.2944 25.8181 19.154 23.854 27.7786C23.1515 30.4288 20.719 29.6782 20.651 27.8169C20.6201 27.0277 20.765 26.4204 20.913 25.8002C20.9819 25.5116 21.0515 25.2201 21.1043 24.9063C21.3158 23.6118 21.278 22.7463 21.2478 22.3557C21.0136 19.3914 17.9466 19.3378 18.1279 21.8885C18.211 23.045 18.1581 24.0867 17.8862 25.1667C17.3423 27.3497 14.0864 26.8289 14.4641 24.5923L14.4738 24.536C14.6495 23.514 14.958 21.7206 14.7058 20.931C14.5699 20.5174 14.2375 20.0808 13.8446 20.0885C13.6256 20.0961 13.4594 20.2416 13.3989 20.2953C12.4036 21.2146 12.4911 24.3299 12.5454 26.2631C12.5513 26.472 12.5567 26.6671 12.5604 26.8442C12.6058 29.3029 10.687 28.9429 10.0449 28.3225C8.44338 26.7906 9.60673 16.4272 14.1544 16.4272C15.541 16.4272 16.2316 17.5534 16.5125 18.0115C16.5729 18.11 16.6143 18.1776 16.6397 18.1965C16.822 18.3296 16.962 18.2272 17.0191 18.1855Z" fill="white"/>
</svg>
